<?xml version="1.0" encoding="UTF-8" standalone="no"?><!DOCTYPE svg PUBLIC "-//W3C//DTD SVG 1.1//EN" "http://www.w3.org/Graphics/SVG/1.1/DTD/svg11.dtd"><svg width="100%" height="100%" viewBox="0 0 1165 1053" version="1.1" xmlns="http://www.w3.org/2000/svg" xmlns:xlink="http://www.w3.org/1999/xlink" xml:space="preserve" xmlns:serif="http://www.serif.com/" style="fill-rule:evenodd;clip-rule:evenodd;stroke-linejoin:round;stroke-miterlimit:2;"><rect id="Mesa-de-trabajo3" serif:id="Mesa de trabajo3" x="0" y="0" width="1165" height="1053" style="fill:none;"/><g><path d="M393.746,327.853c-10.41,0 -18.405,3.886 -23.995,11.657c-5.59,7.779 -8.384,19.052 -8.384,33.823c0,5.782 1.065,11.34 3.184,16.673c2.115,5.33 5.008,10.052 8.665,14.161c3.667,4.112 8,7.389 13.013,9.829c5.008,2.444 10.405,3.66 16.187,3.66c8.99,0 16.925,-1.761 23.8,-5.299c6.356,-3.266 12.301,-8.591 17.836,-15.98c0.406,-0.545 1.271,-0.228 1.228,0.449c-0.406,6.527 -1.552,12.926 -3.453,19.191c-2.12,7.01 -5.465,13.236 -10.021,18.696c-4.561,5.462 -10.501,9.829 -17.828,13.106c-7.322,3.273 -16.377,4.914 -27.172,4.914c-11.434,0 -21.81,-1.834 -31.122,-5.496c-9.317,-3.662 -17.247,-8.577 -23.798,-14.74c-6.553,-6.169 -11.631,-13.33 -15.226,-21.488c-3.597,-8.156 -5.397,-16.798 -5.397,-25.92c0,-9.634 1.668,-18.564 5.01,-26.787c3.34,-8.219 8.221,-15.351 14.647,-21.39c6.423,-6.039 14.325,-10.792 23.704,-14.262c9.377,-3.468 20.042,-5.203 31.99,-5.203c3.855,0 7.808,0.13 11.852,0.384c4.049,0.262 7.997,0.61 11.85,1.06c3.857,0.449 7.519,0.932 10.989,1.447c3.23,0.478 6.125,0.959 8.69,1.437c0.324,0.06 0.558,0.341 0.558,0.67l0,34.21c0,0.38 -0.303,0.682 -0.682,0.682l-0.024,0c-0.272,0 -0.514,-0.159 -0.625,-0.409c-1.528,-3.453 -3.554,-6.885 -6.087,-10.288c-2.639,-3.53 -5.556,-6.678 -8.769,-9.444c-3.211,-2.761 -6.584,-5.008 -10.117,-6.743c-3.537,-1.735 -7.036,-2.603 -10.501,-2.603" style="fill:#3d3d3d;fill-rule:nonzero;"/><path d="M530.377,382.464c0,-0.598 -0.714,-0.908 -1.149,-0.497c-2.509,2.374 -5.207,4.506 -8.103,6.399c-3.34,2.184 -6.428,4.626 -9.252,7.32c-2.824,2.701 -5.171,5.878 -7.029,9.54c-1.867,3.662 -2.797,8.452 -2.797,14.358c0,2.828 0.255,5.59 0.771,8.288c0.512,2.696 1.351,5.107 2.504,7.224c1.158,2.12 2.631,3.826 4.431,5.107c1.8,1.288 3.919,1.93 6.359,1.93c3.086,0 5.558,-1.153 7.421,-3.47c1.862,-2.312 3.309,-5.265 4.335,-8.865c1.031,-3.593 1.704,-7.574 2.026,-11.946c0.32,-4.366 0.483,-8.543 0.483,-12.525l0,-22.863Zm2.718,56.616c-0.161,-0.545 -0.875,-0.663 -1.211,-0.199c-3.198,4.429 -7.812,7.824 -13.839,10.189c-6.556,2.569 -13.491,3.855 -20.815,3.855c-5.525,0 -10.987,-0.709 -16.379,-2.12c-5.397,-1.413 -10.213,-3.566 -14.455,-6.457c-4.239,-2.891 -7.675,-6.52 -10.309,-10.888c-2.636,-4.366 -3.953,-9.507 -3.953,-15.416c0,-7.192 1.834,-13.01 5.493,-17.442c3.662,-4.434 8.286,-8.026 13.875,-10.792c5.592,-2.761 11.66,-5.073 18.211,-6.935c6.556,-1.862 12.717,-3.792 18.499,-5.782c5.782,-1.992 10.727,-4.431 14.841,-7.325c4.092,-2.879 6.467,-6.745 7.12,-11.6c0.005,-0.038 0.007,-0.077 0.007,-0.115c-0.13,-4.859 -0.452,-9.144 -0.961,-12.856c-0.512,-3.722 -1.351,-6.87 -2.504,-9.444c-1.158,-2.569 -2.732,-4.525 -4.722,-5.876c-1.992,-1.351 -4.595,-2.026 -7.803,-2.026c-3.987,0 -8.226,1.158 -12.722,3.47c-4.499,2.312 -8.802,5.332 -12.914,9.055c-4.109,3.732 -7.832,7.901 -11.174,12.53c-3.235,4.477 -5.686,8.951 -7.349,13.428c-0.101,0.272 -0.356,0.447 -0.642,0.447c-0.377,0 -0.682,-0.303 -0.682,-0.682l0,-38.947c0,-0.274 0.166,-0.524 0.421,-0.627c3.23,-1.341 6.784,-2.538 10.66,-3.588c4.049,-1.089 8.255,-2.055 12.626,-2.891c4.366,-0.834 8.702,-1.475 13.003,-1.925c4.304,-0.449 8.384,-0.675 12.239,-0.675c10.148,0 18.725,0.743 25.73,2.218c6.998,1.478 12.813,3.47 17.442,5.974c4.624,2.506 8.252,5.457 10.888,8.863c2.629,3.408 4.59,7.034 5.878,10.888c1.281,3.857 2.055,7.872 2.312,12.047c0.255,4.174 0.382,8.319 0.382,12.431l0,80.256c0,0.377 -0.305,14.632 -0.682,14.632l-42.551,-13.95c-0.305,0 -0.57,-0.199 -0.656,-0.49l-3.302,-11.234Z" style="fill:#3d3d3d;fill-rule:nonzero;"/><path d="M577.189,319.376l52.356,0c0.279,0 0.529,0.171 0.634,0.43l33.886,85.091c0.228,0.572 1.036,0.574 1.266,0l7.267,-18.074c3.47,-9.117 6.13,-17.148 7.997,-24.088c1.862,-6.938 2.795,-13.169 2.795,-18.696c0,-9.278 -3.083,-17.045 -9.247,-23.31c-0.125,-0.13 -0.195,-0.298 -0.195,-0.478l0,-0.192c0,-0.377 0.305,-0.682 0.682,-0.682l36.26,0c0.485,0 0.817,0.493 0.632,0.942l-44.899,108.708l-8.094,20.046c-3.47,9.117 -5.03,11.967 -25.701,5.811c-6.806,-2.026 -13.032,-2.571 -18.429,-2.521c-5.01,0.05 -9.434,0.865 -13.275,2.444c-3.758,1.543 -7.202,3.891 -10.333,7.034c-0.127,0.125 -0.298,0.199 -0.476,0.202l-0.384,0.002c-0.377,0.005 -0.685,-0.3 -0.687,-0.675l-0.356,-36.407c-0.005,-0.445 0.409,-0.774 0.841,-0.67l47.591,11.318c0.574,0.135 1.041,-0.469 0.762,-0.988l-61.495,-114.242c-0.245,-0.454 0.084,-1.004 0.601,-1.004" style="fill:#3d3d3d;fill-rule:nonzero;"/><path d="M768.654,319.376c0.377,0 0.682,0.305 0.682,0.682l0,79.29c0,6.171 0.163,11.888 0.483,17.153c0.32,5.27 0.928,9.8 1.829,13.589c0.899,3.79 2.216,6.743 3.953,8.863c1.73,2.12 4.078,3.179 7.034,3.179c3.597,0 6.649,-1.351 9.153,-4.047c2.509,-2.696 4.561,-6.551 6.166,-11.564c1.605,-5.008 2.759,-11.016 3.468,-18.018c0.702,-7.003 1.062,-14.803 1.062,-23.413l0,-65.032c0,-0.377 0.305,-0.682 0.682,-0.682l48.545,9.35c0.377,0 0.682,5.638 0.682,6.012l0.375,128.81l-43.594,-12.746c-0.308,0 -0.582,-0.207 -0.658,-0.507l-3.879,-14.668c-0.154,-0.586 -0.932,-0.687 -1.247,-0.168c-3.122,5.111 -7.214,9.201 -12.277,12.263c-5.525,3.335 -12.784,5.013 -21.777,5.013c-7.325,0 -13.618,-0.872 -18.888,-2.605c-5.268,-1.733 -9.73,-4.044 -13.39,-6.938c-3.662,-2.888 -6.62,-6.195 -8.865,-9.922c-2.249,-3.727 -4.02,-7.55 -5.299,-11.47c-1.286,-3.915 -2.153,-7.772 -2.603,-11.564c-0.452,-3.785 -0.743,-7.161 -0.865,-10.119l0,-80.059c0,-0.377 0.305,-0.682 0.68,-0.682l48.547,0Z" style="fill:#3d3d3d;fill-rule:nonzero;"/><path d="M647.058,545.624c-2.951,2.951 -6.166,5.561 -9.651,7.839c-3.484,2.281 -6.7,4.828 -9.644,7.637c-2.951,2.816 -5.397,6.13 -7.339,9.951c-1.946,3.816 -2.917,8.814 -2.917,14.974c0,2.951 0.272,5.832 0.805,8.649c0.536,2.809 1.408,5.325 2.617,7.531c1.202,2.213 2.742,3.989 4.621,5.328c1.872,1.343 4.085,2.011 6.632,2.011c3.22,0 5.794,-1.204 7.74,-3.619c1.939,-2.41 3.446,-5.493 4.525,-9.247c1.067,-3.749 1.771,-7.901 2.105,-12.458c0.334,-4.554 0.505,-8.913 0.505,-13.068l0,-25.528Zm2.41,59.296c-3.347,5.227 -8.44,9.182 -15.276,11.862c-6.832,2.677 -14.065,4.018 -21.705,4.018c-5.765,0 -11.463,-0.738 -17.088,-2.211c-5.626,-1.471 -10.653,-3.718 -15.075,-6.733c-4.424,-3.016 -8.009,-6.798 -10.754,-11.357c-2.749,-4.554 -4.119,-9.915 -4.119,-16.081c0,-7.502 1.908,-13.568 5.724,-18.191c3.821,-4.621 8.649,-8.37 14.474,-11.256c5.83,-2.881 12.16,-5.294 18.996,-7.233c6.832,-1.942 13.267,-3.955 19.297,-6.032c6.032,-2.076 11.184,-4.624 15.478,-7.637c4.287,-3.016 6.762,-7.067 7.438,-12.16c-0.135,-5.092 -0.473,-9.583 -1.007,-13.469c-0.536,-3.886 -1.403,-7.168 -2.615,-9.85c-1.206,-2.682 -2.848,-4.722 -4.926,-6.13c-2.076,-1.408 -4.789,-2.112 -8.137,-2.112c-4.157,0 -8.577,1.209 -13.267,3.619c-4.693,2.41 -9.182,5.561 -13.464,9.446c-4.294,3.888 -8.178,8.24 -11.662,13.068c-3.484,4.823 -6.099,9.646 -7.836,14.474l-1.209,0l0,-41.811c3.482,-1.471 7.339,-2.78 11.561,-3.924c4.217,-1.134 8.605,-2.141 13.164,-3.013c4.554,-0.868 9.076,-1.538 13.57,-2.007c4.487,-0.469 8.74,-0.704 12.763,-0.704c10.583,0 19.525,0.774 26.833,2.312c7.303,1.54 13.364,3.619 18.191,6.229c4.823,2.617 8.608,5.698 11.357,9.245c2.747,3.557 4.789,7.339 6.13,11.357c1.339,4.025 2.144,8.214 2.413,12.568c0.264,4.352 0.404,8.675 0.404,12.965l0,94.705l-45.632,-6.664l-4.02,-17.29Z" style="fill:#3d3d3d;fill-rule:nonzero;"/><path d="M713.653,625.253l0,-143.747l45.428,0l4.624,17.283c3.347,-6.032 7.937,-10.754 13.767,-14.169c5.832,-3.42 13.433,-5.126 22.815,-5.126c7.639,0 14.202,0.904 19.698,2.711c5.493,1.81 10.151,4.222 13.969,7.238c3.823,3.016 6.904,6.464 9.249,10.355c2.341,3.886 4.184,7.834 5.527,11.854c1.339,4.023 2.242,8.012 2.715,11.96c0.466,3.953 0.769,7.476 0.904,10.554l0,94.972l-52.063,-10.55l0,-83.62c0,-6.433 -0.171,-12.359 -0.5,-17.785c-0.339,-5.431 -0.978,-10.153 -1.913,-14.173c-0.937,-4.018 -2.345,-7.137 -4.222,-9.346c-1.877,-2.211 -4.354,-3.319 -7.433,-3.319c-3.754,0 -6.935,1.408 -9.55,4.222c-2.61,2.812 -4.722,6.837 -6.33,12.061c-1.608,5.229 -2.785,11.494 -3.521,18.79c-0.738,7.31 -1.103,15.517 -1.103,24.627l0,68.543l-52.063,6.664Z" style="fill:#3d3d3d;fill-rule:nonzero;"/><path d="M417.398,687.452c0,-12.33 -1.73,-21.911 -5.193,-28.743c-3.465,-6.837 -9.528,-10.254 -18.186,-10.254c-4.328,0 -8.264,1.475 -11.794,4.422c-3.537,2.951 -6.496,7.034 -8.877,12.263c-2.379,5.224 -4.22,11.489 -5.52,18.794c-1.298,7.301 -1.946,15.375 -1.946,24.221c0,8.711 0.469,16.721 1.408,24.016c0.937,7.31 2.381,13.57 4.326,18.797c1.949,5.227 4.477,9.314 7.577,12.26c3.1,2.951 6.822,4.422 11.148,4.422c3.754,0 7.255,-1.067 10.501,-3.215c3.244,-2.141 6.092,-5.191 8.545,-9.144c2.454,-3.953 4.402,-8.678 5.847,-14.173c1.439,-5.491 2.165,-11.657 2.165,-18.489l0,-35.176Zm0,75.776c-4.619,5.097 -10.283,8.947 -16.992,11.556c-6.709,2.615 -14.178,3.924 -22.401,3.924c-12.989,0 -23.812,-2.141 -32.47,-6.435c-8.658,-4.287 -15.661,-9.781 -21,-16.483c-5.337,-6.697 -9.127,-14.269 -11.359,-22.711c-2.242,-8.447 -3.357,-16.752 -3.357,-24.925c0,-10.05 1.661,-19.364 4.982,-27.941c3.316,-8.572 8.118,-16.009 14.39,-22.313c6.279,-6.298 14.034,-11.254 23.274,-14.875c9.233,-3.617 19.768,-5.426 31.6,-5.426c16.74,0 28.863,5.227 36.368,15.682l4.112,-22.118l49.309,8.569l-0.173,178.835l-56.28,-12.667l0,-42.674Z" style="fill:#3d3d3d;fill-rule:nonzero;"/><path d="M764.25,648.431c-8.423,0 -15.5,3.186 -21.236,9.55c-5.736,6.366 -9.259,15.646 -10.562,27.835c0.139,2.816 0.868,5.498 2.172,8.043c1.31,2.547 3.013,4.794 5.123,6.733c2.1,1.944 4.573,3.451 7.406,4.525c2.828,1.072 5.842,1.608 9.038,1.608l0.435,0c8.276,-0.272 15.029,-2.747 20.26,-7.44c5.224,-4.688 7.836,-12.061 7.836,-22.111c0,-2.41 -0.252,-5.292 -0.762,-8.639c-0.507,-3.352 -1.485,-6.5 -2.939,-9.451c-1.454,-2.946 -3.521,-5.457 -6.207,-7.538c-2.689,-2.076 -6.207,-3.114 -10.566,-3.114m-38.19,63.708c2.321,8.846 9.961,16.444 18.102,20.517c36.205,18.1 77.848,-2.85 82.712,-5.33c0.781,-0.397 1.564,-0.812 2.355,-1.242c5.28,-2.874 11.677,1.687 9.925,7.108c-0.779,2.417 -1.713,4.818 -2.802,7.2c-3.343,7.305 -8.168,13.801 -14.486,19.499c-6.318,5.695 -14.089,10.247 -23.307,13.669c-9.223,3.415 -19.931,5.126 -32.129,5.126c-14.957,0 -28.135,-1.91 -39.533,-5.731c-11.403,-3.818 -20.909,-8.944 -28.537,-15.375c-7.623,-6.435 -13.364,-13.904 -17.211,-22.416c-3.845,-8.504 -5.772,-17.516 -5.772,-27.03c0,-9.516 1.817,-18.528 5.448,-27.039c3.631,-8.507 9.074,-15.978 16.336,-22.409c7.262,-6.435 16.447,-11.564 27.554,-15.38c11.112,-3.821 24.146,-5.727 39.103,-5.727c10.018,0 19.712,0.904 29.077,2.711c9.37,1.812 17.61,4.393 24.723,7.74c7.113,3.352 12.816,7.471 17.1,12.364c4.28,4.89 6.426,10.487 6.426,16.781c0,6.433 -1.886,12.164 -5.664,17.189c-3.775,5.022 -11.244,10.742 -17.706,14.154c-6.459,3.42 -25.34,8.449 -47.062,9.656c-21.721,1.206 -40.586,-3.218 -44.652,-6.034" style="fill:#3d3d3d;fill-rule:nonzero;"/><path d="M329.907,819.144c-4.39,0 -7.964,-3.571 -7.964,-7.964c0,-4.393 3.573,-7.966 7.964,-7.966c4.393,0 7.964,3.573 7.964,7.966c0,4.393 -3.571,7.964 -7.964,7.964m0,-23.961c-8.822,0 -15.997,7.176 -15.997,15.997c0,8.822 7.176,15.997 15.997,15.997c6.94,0 12.847,-4.453 15.058,-10.641l55.927,0l0,-10.713l-55.927,0c-2.213,-6.19 -8.118,-10.641 -15.058,-10.641" style="fill:#3d3d3d;fill-rule:nonzero;"/><path d="M824.675,819.144c-4.39,0 -7.964,-3.571 -7.964,-7.964c0,-4.393 3.573,-7.966 7.964,-7.966c4.393,0 7.964,3.573 7.964,7.966c0,4.393 -3.571,7.964 -7.964,7.964m-185.84,0c-4.393,0 -7.964,-3.571 -7.964,-7.964c0,-4.393 3.571,-7.966 7.964,-7.966c4.393,0 7.964,3.573 7.964,7.966c0,4.393 -3.571,7.964 -7.964,7.964m185.84,-23.961c-6.94,0 -12.844,4.45 -15.055,10.641l-155.729,0c-2.211,-6.19 -8.115,-10.641 -15.055,-10.641c-6.94,0 -12.844,4.45 -15.055,10.641l-98.281,0c-1.968,-3.924 -6.015,-6.625 -10.706,-6.625c-6.618,0 -11.982,5.364 -11.982,11.982c0,6.616 5.364,11.979 11.982,11.979c4.691,0 8.738,-2.699 10.708,-6.623l98.279,0c2.211,6.188 8.115,10.641 15.055,10.641c6.94,0 12.844,-4.453 15.055,-10.641l155.729,0c2.211,6.188 8.115,10.641 15.055,10.641c8.822,0 15.997,-7.176 15.997,-15.997c0,-8.822 -7.176,-15.997 -15.997,-15.997" style="fill:#3d3d3d;fill-rule:nonzero;"/><path d="M763,289.195c-1.718,-0.094 -3.41,-0.524 -5.2,-0.978c-1.536,-0.392 -3.117,-0.774 -4.758,-0.961c-0.807,-0.096 -1.624,-0.156 -2.468,-0.123c-1.73,0.067 -3.458,0.281 -5.128,0.49c-0.764,0.096 -1.557,0.192 -2.324,0.274c-2.124,0.223 -4.643,0.473 -7.216,0.644c-1.718,0.113 -3.525,0.173 -5.272,-0.127c-0.207,-0.036 -0.413,-0.055 -0.615,-0.101c-1.384,-0.315 -2.816,-0.843 -4.638,-1.718l-0.803,-0.384c-0.877,-0.423 -1.759,-0.846 -2.658,-1.257c-2.341,-1.074 -4.777,-2.059 -7.404,-2.651c-1.879,-0.421 -3.845,-0.62 -5.844,-0.598c-1.012,0.012 -2.011,0.091 -2.977,0.166c-1.202,0.099 -2.331,0.187 -3.453,0.154c-0.911,-0.026 -1.814,-0.111 -2.73,-0.231c-0.875,-0.111 -1.761,-0.252 -2.67,-0.397c-0.562,-0.089 -1.146,-0.18 -1.721,-0.267c-1.029,-0.149 -2.062,-0.264 -3.062,-0.372c-0.86,-0.096 -1.687,-0.192 -2.506,-0.308c-0.404,-0.053 -0.803,-0.103 -1.204,-0.173c-4.34,-0.74 -8.243,-2.129 -11.934,-4.251c-1.956,-1.125 -3.891,-2.405 -5.76,-3.648c-1.139,-0.757 -2.319,-1.524 -3.511,-2.276c-0.363,-0.228 -0.726,-0.464 -1.091,-0.69c-3.042,-1.848 -5.974,-3.218 -8.867,-4.143c-1.612,-0.514 -3.211,-0.899 -4.806,-1.139c-2.944,-0.447 -5.517,-0.368 -7.868,0.243c-0.904,0.233 -1.783,0.517 -2.636,0.793c-1.562,0.505 -3.035,0.985 -4.547,1.129c-0.324,-0.01 -0.658,0.048 -0.988,0.185c-0.512,0.216 -1.033,0.37 -1.562,0.476c-3.285,0.661 -6.82,-0.637 -9.958,-2.117c-0.103,-0.048 -0.204,-0.096 -0.305,-0.144c-2.281,-1.091 -4.539,-2.379 -6.726,-3.624c-2.187,-1.247 -4.45,-2.535 -6.781,-3.662c-2.776,-1.339 -5.676,-2.182 -8.596,-2.809c-2.314,-0.497 -4.643,-0.865 -6.938,-1.221l-1.017,-0.156c-0.663,-0.103 -1.334,-0.209 -2.007,-0.317c-2.595,-0.409 -5.227,-0.86 -7.774,-1.468c-2.655,-0.632 -5.145,-1.567 -7.779,-2.554c-0.49,-0.183 -0.98,-0.37 -1.478,-0.55c-1.771,-0.656 -3.569,-1.209 -5.378,-1.709c-3.285,-0.911 -6.616,-1.598 -9.958,-2.151c-4.052,-0.67 -8.115,-1.161 -12.119,-1.636c-3.391,-0.401 -6.866,-0.836 -10.288,-1.358c-0.584,-0.087 -1.175,-0.159 -1.752,-0.255c-3.028,-0.5 -5.719,-1.067 -8.207,-1.709c-0.447,-0.118 -0.901,-0.228 -1.336,-0.351c-2.199,-0.615 -4.4,-1.413 -6.527,-2.187c-0.882,-0.322 -1.79,-0.651 -2.696,-0.968c-4.342,-1.516 -8.226,-2.61 -11.85,-3.34c-2.677,-0.538 -5.215,-0.889 -7.661,-1.036c-0.769,-0.048 -1.536,-0.07 -2.297,-0.072c-5.469,-0.01 -10.78,1.127 -15.824,3.398c-2.285,1.026 -4.47,2.242 -6.584,3.537c-2.168,1.329 -4.265,2.742 -6.327,4.131c-0.779,0.526 -1.56,1.053 -2.338,1.572c-0.017,0.012 -0.031,0.022 -0.048,0.031c-7.022,4.672 -14.529,9.362 -22.409,12.856c-1.665,0.74 -3.343,1.444 -5.042,2.062c-1.615,0.589 -3.261,1.108 -4.917,1.598c-7.142,2.115 -14.647,3.326 -22.409,3.609c-0.988,0.034 -1.973,0.07 -2.97,0.077c-1.341,0.007 -2.737,-0.017 -4.088,-0.041c-0.959,-0.017 -1.93,-0.034 -2.901,-0.038c-2.838,-0.019 -5.715,0.053 -8.526,0.485c-1.959,0.303 -3.804,1.002 -5.59,1.68c-0.324,0.125 -0.649,0.248 -0.968,0.368c-2.442,0.906 -4.897,1.829 -7.325,2.742c-0.735,0.276 -1.48,0.555 -2.206,0.829c-2.569,0.968 -5.157,1.939 -7.75,2.908c-7.365,2.744 -14.834,5.433 -22.409,7.848c-3.299,1.05 -6.623,2.04 -9.961,2.963c-3.79,1.05 -7.599,2.021 -11.434,2.848c-3.088,0.663 -6.202,1.25 -9.264,1.742c-0.795,0.127 -1.408,0.608 -1.711,1.262c-0.185,0.399 -0.255,0.863 -0.175,1.351c0.034,0.211 0.099,0.406 0.175,0.591c0.382,0.906 1.242,1.497 2.228,1.497c0.13,0 0.264,-0.01 0.397,-0.031c6.714,-1.077 13.255,-2.518 19.785,-4.261c3.314,-0.882 6.628,-1.848 9.961,-2.879c7.301,-2.266 14.695,-4.869 22.409,-7.738c3.256,-1.214 6.57,-2.473 9.956,-3.773c1.346,-0.517 2.701,-1.038 4.073,-1.569c0.406,-0.159 0.815,-0.315 1.221,-0.473c2.405,-0.935 4.89,-1.901 7.363,-2.682c2.574,-0.81 5.316,-0.824 8.219,-0.836c0.348,-0.002 0.702,-0.005 1.05,-0.007c0.161,-0.002 0.324,0 0.483,-0.002c1.266,-0.007 2.547,-0.002 3.797,0.002c2.026,0.007 4.088,0.017 6.161,-0.029c2.031,-0.048 4.073,-0.144 6.097,-0.348c4.847,-0.488 10.136,-1.507 16.168,-3.119c0.048,-0.012 0.096,-0.029 0.144,-0.043c3.468,-0.935 6.777,-2.129 9.958,-3.484c5.842,-2.485 11.244,-5.52 16.319,-8.56c2.055,-1.233 4.083,-2.516 6.089,-3.814c1.504,-0.971 3.001,-1.946 4.465,-2.91c1.391,-0.913 2.824,-1.853 4.249,-2.773c0.19,-0.123 0.38,-0.25 0.57,-0.37c4.112,-2.648 9.627,-5.835 15.815,-6.967c1.918,-0.351 3.917,-0.507 6.025,-0.493c3.042,0.022 6.325,0.428 9.958,1.228c1.079,0.236 2.175,0.497 3.316,0.805c2.925,0.783 5.849,1.817 8.68,2.821c3.268,1.156 6.647,2.35 10.119,3.203c0.099,0.024 0.195,0.043 0.293,0.065c3.287,0.795 6.625,1.389 9.958,1.877c3.179,0.466 6.354,0.841 9.478,1.206c4.265,0.502 8.625,1.017 12.929,1.764c2.309,0.399 4.604,0.86 6.861,1.43c1.036,0.262 2.071,0.567 3.098,0.889c1.807,0.56 3.597,1.185 5.344,1.798c3.537,1.25 7.192,2.535 11.033,3.295c1.997,0.392 4.032,0.697 6.032,0.985c0.312,0.046 0.634,0.094 0.944,0.142c2.994,0.428 6.061,0.875 9.016,1.579c0.894,0.214 1.781,0.447 2.646,0.714c3.672,1.139 7.029,3.129 10.581,5.236c2.944,1.747 5.95,3.523 9.182,4.799c2.071,0.815 4.229,1.432 6.529,1.687c1.18,0.132 2.324,0.12 3.429,-0.029c1.036,-0.137 2.035,-0.389 2.992,-0.769c2.028,-0.211 3.895,-0.805 5.703,-1.377c0.291,-0.094 0.582,-0.185 0.872,-0.274c2.139,-0.666 4.073,-0.889 6.094,-0.704c2.199,0.204 4.453,0.752 6.745,1.617c1.608,0.608 3.232,1.367 4.869,2.295c1.73,0.98 3.427,2.086 5.09,3.184c0.322,0.211 0.646,0.421 0.964,0.632c1.394,0.923 2.836,1.879 4.297,2.778c4.145,2.55 8.156,4.253 12.26,5.21c1.524,0.358 3.138,0.642 4.888,0.87c0.658,0.084 1.331,0.163 2.028,0.233c1.468,0.144 2.968,0.372 4.417,0.594c0.831,0.127 1.694,0.26 2.552,0.372c0.315,0.043 0.642,0.072 0.961,0.103c1.997,0.204 4.068,0.223 6.447,0.041c1.622,-0.127 3.53,-0.226 5.388,-0.019c3.708,0.411 7.207,1.946 10.437,3.547c0.043,0.022 0.091,0.043 0.137,0.065c2.535,1.254 5.445,2.557 8.714,3.033c0.622,0.094 1.254,0.163 1.901,0.187c2.396,0.089 4.797,-0.154 7.116,-0.389c0.421,-0.043 0.839,-0.087 1.257,-0.125c1.829,-0.178 3.677,-0.38 5.467,-0.572c0.904,-0.101 1.807,-0.197 2.713,-0.296c1.322,-0.137 2.607,-0.111 3.955,0.055c0.868,0.103 1.754,0.257 2.706,0.495c0.298,0.072 0.594,0.149 0.894,0.226c1.973,0.502 4.013,1.021 6.178,1.144c0.043,0.002 0.091,0.002 0.135,0.002c0.017,0 0.031,-0.005 0.046,-0.005c1.214,-0.024 2.192,-0.959 2.261,-2.201c0.074,-1.36 -0.918,-2.485 -2.261,-2.559" style="fill:#3d3d3d;fill-rule:nonzero;"/><path d="M851.347,261.837c0.024,0.07 0.043,0.142 0.06,0.211c-0.382,-0.029 -0.793,0.079 -1.211,0.38c-0.043,0.031 -0.094,0.065 -0.149,0.096l-0.57,-1.906c0.666,-0.207 1.524,0.173 1.87,1.218m3.321,0.769c-1.086,-2.509 -3.35,-3.369 -5.263,-2.004c-0.048,0.034 -0.113,0.072 -0.159,0.101c-0.019,0.012 -0.041,0.024 -0.058,0.036c-0.103,0.046 -0.192,0.084 -0.284,0.118c-0.168,0.065 -0.353,0.123 -0.56,0.183c-0.127,0.036 -0.257,0.067 -0.38,0.096l-0.123,0.024c-0.022,0.005 -0.043,0.01 -0.065,0.014c-0.012,0.002 -0.026,0.002 -0.038,0.005l-0.25,0.034c-0.103,0.014 -0.207,0.029 -0.245,0.034c-0.279,0.031 -0.565,0.053 -0.872,0.07c-0.594,0.031 -1.221,0.034 -1.915,0.012c-2.922,-0.101 -5.522,-0.57 -7.894,-1.06c-4.84,-1 -9.735,-2.345 -14.467,-3.648c-1.317,-0.36 -2.631,-0.723 -3.946,-1.077c-3.665,-0.99 -8.026,-2.079 -12.563,-2.653c-0.81,-0.103 -1.627,-0.171 -2.413,-0.238c-1.161,-0.096 -2.259,-0.187 -3.352,-0.38c-1.706,-0.303 -3.521,-0.786 -5.707,-1.521c-2.961,-0.992 -5.936,-2.264 -8.812,-3.494c-0.875,-0.37 -1.749,-0.745 -2.622,-1.113c-0.541,-0.226 -1.074,-0.464 -1.641,-0.714c-2.98,-1.317 -6.359,-2.814 -9.838,-2.256c-1.105,0.178 -2.122,0.555 -3.102,0.916c-0.654,0.24 -1.269,0.469 -1.886,0.632c-1.584,0.416 -2.629,0.577 -4.239,0.757c-1.682,0.192 -3.321,0.286 -4.876,0.276c-0.851,-0.005 -1.61,-0.038 -2.319,-0.101c-0.281,-0.026 -0.565,-0.06 -0.863,-0.099l-0.171,-0.022c-0.01,0 -0.022,-0.002 -0.036,-0.005c-0.142,-0.031 -0.281,-0.06 -0.418,-0.094c-0.565,-0.127 -1.113,-0.12 -1.624,0.007c-8.956,-1.877 -16.11,-8.476 -22.683,-15.123l-0.144,-0.144c-3.533,-3.573 -7.188,-7.269 -11.189,-10.259c-3.898,-2.91 -8.06,-5.426 -12.085,-7.863c-0.966,-0.582 -1.934,-1.168 -2.891,-1.752c-5.162,-3.162 -10.773,-6.318 -16.841,-7.969c-5.707,-1.55 -11.501,-1.423 -18.237,0.411l-0.639,0.175c-2.502,0.685 -4.861,1.329 -7.277,1.343c-1.673,0.005 -3.333,-0.327 -5.095,-0.678c-1.089,-0.219 -2.218,-0.445 -3.355,-0.586c-0.836,-0.103 -1.682,-0.192 -2.502,-0.274c-2.22,-0.228 -4.316,-0.445 -6.397,-0.964c-2.922,-0.728 -5.765,-2.144 -8.514,-3.506c-1.569,-0.781 -3.158,-1.61 -4.698,-2.413c-1.396,-0.728 -2.838,-1.48 -4.273,-2.199c-1.043,-0.524 -2.107,-1.007 -3.134,-1.475c-1.927,-0.875 -3.749,-1.704 -5.498,-2.79c-1.247,-0.771 -2.521,-1.644 -3.749,-2.485c-3.821,-2.624 -7.772,-5.33 -12.306,-6.133c-3.931,-0.692 -7.755,-0.017 -11.448,0.639c-2.679,0.473 -5.205,0.92 -7.784,0.894c-3.463,-0.038 -6.854,-0.858 -10.439,-1.723c-2.516,-0.603 -5.116,-1.233 -7.728,-1.557c-5.878,-0.735 -12.753,-1.339 -19.217,-0.276c-2.797,0.459 -5.397,1.723 -7.911,2.944c-2.672,1.298 -5.195,2.523 -7.844,2.783c-1.413,0.139 -2.86,-0.173 -4.388,-0.5c-1.298,-0.279 -2.641,-0.567 -4.037,-0.594l-0.171,0c-3.441,0 -6.236,1.8 -8.524,3.569c-3.722,2.879 -8.245,3.936 -12.619,4.96c-1.339,0.315 -2.725,0.637 -4.073,1.012c-5.441,1.5 -11.285,3.653 -18.4,6.774c-1.026,0.452 -2.043,0.961 -3.025,1.456c-1.932,0.973 -3.761,1.896 -5.662,2.386c-1.752,0.452 -3.583,0.341 -5.52,0.221c-0.216,-0.012 -0.433,-0.026 -0.649,-0.038c-6.058,-0.346 -12.289,0.61 -18.525,2.843c-2.773,0.997 -5.462,2.314 -8.07,3.59c-1.807,0.887 -3.679,1.802 -5.534,2.586c-0.175,0.074 -0.356,0.151 -0.536,0.228c-1.326,0.572 -2.691,1.161 -3.91,1.105c-0.154,-0.007 -0.305,-0.002 -0.454,0.012c-3.984,-0.577 -8.231,-1.113 -12.52,-0.819c-4.244,0.293 -8.329,1.514 -12.484,3.734c-7.103,3.804 -14.978,7.015 -23.404,9.54c-3.782,1.132 -7.82,2.175 -12.001,3.09c-1.358,0.298 -2.747,0.574 -4.09,0.846c-2.723,0.543 -5.539,1.105 -8.305,1.874c-3.136,0.868 -6.282,1.903 -9.322,2.903c-1.036,0.341 -2.076,0.682 -3.112,1.019c-1.894,0.61 -3.703,1.689 -5.534,3.297c-0.262,0.231 -0.524,0.464 -0.786,0.697c-0.529,0.473 -1.029,0.923 -1.543,1.346c-0.442,0.36 -0.855,0.673 -1.264,0.956c-0.228,0.156 -0.461,0.31 -0.69,0.452c-0.05,0.031 -0.099,0.06 -0.149,0.089c-0.091,0.05 -0.178,0.106 -0.267,0.161c-0.002,0 -0.005,0.002 -0.007,0.002c-3.184,1.632 -6.241,1.87 -9.069,1.882c-1.399,0.007 -2.586,0.872 -3.256,2.372c-0.711,1.593 -0.707,3.645 0.012,5.229c0.67,1.478 1.85,2.326 3.239,2.326l0.017,0c6.618,-0.029 11.967,-1.913 16.355,-5.758c0.262,-0.231 0.524,-0.466 0.783,-0.699c0.433,-0.389 0.839,-0.752 1.257,-1.103c0.327,-0.274 0.615,-0.5 0.882,-0.692c0.147,-0.103 0.281,-0.197 0.413,-0.284c0.067,-0.041 0.168,-0.099 0.245,-0.144c0.026,-0.017 0.058,-0.031 0.084,-0.048c0.839,-0.389 1.73,-0.666 2.67,-0.954c0.351,-0.108 0.697,-0.216 1.043,-0.329l1.021,-0.336c1.682,-0.55 3.422,-1.125 5.133,-1.656c4.475,-1.391 9.115,-2.379 13.601,-3.333c3.547,-0.757 7.214,-1.538 10.814,-2.518c8.754,-2.386 16.622,-5.32 24.055,-8.971c0.906,-0.445 1.805,-0.928 2.675,-1.396c1.283,-0.69 2.494,-1.343 3.744,-1.891c1.927,-0.848 3.934,-1.401 5.964,-1.644c4.46,-0.536 9.081,0.034 13.431,0.663c0.219,0.031 0.437,0.031 0.654,0.007c0.017,0 0.031,0.002 0.046,0.002c3.686,0.171 7.426,-1.788 10.727,-3.516c0.694,-0.363 1.353,-0.709 1.997,-1.024c6.142,-3.037 10.951,-4.717 15.584,-5.448c2.333,-0.37 4.667,-0.303 7.137,-0.231c2.771,0.079 5.635,0.163 8.495,-0.428c2.305,-0.476 4.424,-1.536 6.471,-2.559c0.735,-0.37 1.492,-0.75 2.235,-1.086c3.15,-1.437 6.423,-2.67 9.247,-3.71c0.68,-0.252 1.358,-0.507 2.038,-0.762c2.297,-0.865 4.674,-1.761 7.022,-2.442c1.605,-0.464 3.261,-0.875 4.864,-1.271c1.391,-0.346 2.831,-0.702 4.246,-1.096c3.158,-0.88 6.219,-1.829 8.992,-3.78c0.471,-0.332 0.92,-0.673 1.358,-1.007c1.673,-1.264 3.114,-2.36 4.878,-2.329c1.165,0.019 2.341,0.267 3.585,0.526c1.728,0.365 3.516,0.743 5.417,0.519c2.997,-0.351 5.748,-1.514 8.274,-2.718c0.353,-0.168 0.711,-0.339 1.067,-0.514c2.177,-1.055 4.426,-2.146 6.666,-2.542c2.653,-0.469 5.498,-0.404 8.25,-0.341l0.649,0.014c5.719,0.127 11.59,0.949 18.477,2.593c3.504,0.834 6.467,1.389 9.516,1.384c2.612,-0.005 5.191,-0.476 7.678,-0.93c0.582,-0.108 1.158,-0.214 1.737,-0.315c3.242,-0.558 6.147,-0.971 8.915,-0.329c2.607,0.603 5.03,2.134 7.493,3.785c0.538,0.363 1.077,0.728 1.615,1.096c1.999,1.363 4.066,2.771 6.229,3.939c1.62,0.88 3.29,1.639 4.902,2.377c1.266,0.582 2.579,1.18 3.833,1.822c1.209,0.618 2.449,1.281 3.648,1.922c4.698,2.521 9.557,5.126 14.712,6.142c2.158,0.425 4.335,0.666 6.443,0.894c0.819,0.089 1.665,0.183 2.494,0.284c1.053,0.13 2.088,0.336 3.186,0.555c1.891,0.377 3.847,0.767 5.873,0.726c3.033,-0.058 5.962,-0.846 8.793,-1.61c2.8,-0.755 5.445,-1.468 8.158,-1.521c4.823,-0.099 10.047,1.408 16.435,4.736c3.78,1.971 7.524,4.378 11.141,6.709c1.49,0.959 3.03,1.954 4.561,2.905c4.179,2.603 7.99,5.606 11.657,9.185c1.021,0.995 2.05,2.019 3.047,3.009c6.298,6.265 12.811,12.741 20.892,15.932c2.357,0.93 4.974,1.603 8.005,2.062c0.127,0.019 0.252,0.026 0.38,0.026c0.262,0 0.524,-0.043 0.779,-0.125c2.016,0.248 4.237,0.257 6.923,0.041c2.754,-0.223 5.976,-0.598 8.99,-1.699c0.142,-0.055 0.284,-0.106 0.423,-0.156c1.278,-0.476 2.29,-0.853 3.432,-0.668c1.098,0.178 2.343,0.723 3.545,1.25c0.375,0.166 0.767,0.336 1.149,0.493c1.264,0.526 2.554,1.074 3.799,1.605c2.595,1.108 5.282,2.254 7.969,3.251c4.501,1.675 8.584,2.629 12.479,2.92c3.472,0.257 7.12,0.916 11.83,2.134c2.213,0.572 4.463,1.187 6.635,1.783c4.241,1.163 8.627,2.365 12.998,3.307c3.018,0.651 6.582,1.339 10.129,1.488c0.457,0.017 0.925,0.031 1.401,0.031c2.571,0 5.347,-0.368 7.716,-2.057c1.865,-1.331 2.475,-4.172 1.42,-6.613" style="fill:#3d3d3d;fill-rule:nonzero;"/><path d="M497.31,493.666c1.91,2.208 3.391,5.328 4.453,9.346c1.06,4.02 1.728,8.742 2.011,14.171c0.284,5.429 0.428,11.352 0.428,17.788l-0.082,83.043l55.216,10.862l0,-12.232l-0.026,-82.476c-0.147,-3.078 -0.461,-6.601 -0.959,-10.554c-0.495,-3.948 -1.447,-7.937 -2.857,-11.96c-1.415,-4.02 -3.357,-7.969 -5.832,-11.857c-2.47,-3.888 -5.758,-7.337 -9.855,-10.352c-4.1,-3.016 -9.043,-5.429 -14.834,-7.238c-5.796,-1.807 -12.719,-2.711 -20.77,-2.711c-11.734,0 -20.916,2.511 -27.558,7.536c-6.642,5.022 -11.518,11.693 -14.623,20.001c-1.56,-3.621 -3.638,-7.101 -6.253,-10.453c-2.619,-3.347 -5.904,-6.26 -9.857,-8.742c-3.958,-2.478 -8.656,-4.489 -14.096,-6.032c-5.436,-1.538 -11.758,-2.309 -18.967,-2.309c-9.893,0 -17.876,1.706 -23.949,5.126c-6.08,3.415 -10.953,8.137 -14.625,14.169l-4.662,-17.283l-48.114,0l0,147.369l54.893,-10.285l0,-68.543c0,-9.11 0.389,-17.317 1.168,-24.627c0.776,-7.296 2.045,-13.565 3.814,-18.79c1.766,-5.227 4.025,-9.249 6.784,-12.061c2.754,-2.814 6.111,-4.222 10.064,-4.222c3.254,0 5.835,1.105 7.74,3.319c1.903,2.208 3.352,5.328 4.345,9.346c0.988,4.02 1.661,8.742 2.011,14.171c0.356,5.429 0.531,11.352 0.531,17.788l0,74.594l54.893,9.026l0,-68.543l0.216,0c0,-9.11 0.384,-17.317 1.163,-24.627c0.776,-7.296 2.011,-13.565 3.71,-18.79c1.699,-5.227 3.919,-9.249 6.676,-12.061c2.754,-2.814 6.113,-4.222 10.066,-4.222c3.254,0 5.832,1.105 7.738,3.319" style="fill:#3d3d3d;fill-rule:nonzero;"/><path d="M597.77,639.613l0,68.543c0,8.98 -0.404,17.117 -1.197,24.42c-0.8,7.305 -2.1,13.57 -3.912,18.794c-1.814,5.229 -4.128,9.247 -6.95,12.061c-2.828,2.812 -6.27,4.22 -10.324,4.22c-3.335,0 -7.036,-1.103 -8.988,-3.316c-1.961,-2.211 -3.444,-5.292 -4.46,-9.245c-1.014,-3.953 -1.704,-8.675 -2.062,-14.173c-0.365,-5.489 -0.543,-11.455 -0.543,-17.891l0,-73.637l-55.213,-10.862l0,85.302c0.144,3.088 0.471,6.606 0.98,10.554c0.502,3.953 1.485,7.976 2.932,12.061c1.447,4.09 3.444,8.077 5.976,11.963c2.533,3.886 5.868,7.337 9.997,10.352c4.126,3.013 9.156,5.426 15.099,7.236c5.933,1.805 13.034,2.713 21.291,2.713c10.139,0 18.321,-1.745 24.552,-5.224c6.229,-3.484 11.153,-8.245 14.774,-14.274l4.996,17.49l49.321,0l0,-128.271l-56.27,-8.814Z" style="fill:#3d3d3d;fill-rule:nonzero;"/><path d="M335.713,855.797c-0.791,-1.339 -2.357,-2.007 -4.696,-2.007l-4.748,0l0,16.079l4.748,0c2.427,0 4.121,-1.197 5.08,-3.595c0.524,-1.312 0.786,-2.879 0.786,-4.696c0,-2.506 -0.392,-4.434 -1.17,-5.782m-3.828,18.35l-10.612,0l0,-24.634l10.612,0c1.526,0.022 2.8,0.202 3.811,0.533c1.725,0.57 3.124,1.61 4.196,3.126c0.858,1.226 1.442,2.552 1.754,3.977c0.312,1.427 0.469,2.788 0.469,4.078c0,3.278 -0.658,6.051 -1.973,8.324c-1.783,3.064 -4.535,4.595 -8.257,4.595" style="fill:#3d3d3d;fill-rule:nonzero;"/><rect x="352.437" y="849.514" width="5.114" height="24.634" style="fill:#3d3d3d;"/><path d="M378.135,870.588c1.214,0 2.199,-0.135 2.958,-0.401c1.437,-0.512 2.156,-1.466 2.156,-2.857c0,-0.815 -0.356,-1.442 -1.069,-1.889c-0.714,-0.435 -1.834,-0.819 -3.36,-1.153l-2.607,-0.586c-2.562,-0.577 -4.333,-1.209 -5.313,-1.886c-1.661,-1.137 -2.492,-2.913 -2.492,-5.332c0,-2.206 0.803,-4.037 2.405,-5.501c1.605,-1.459 3.963,-2.187 7.072,-2.187c2.595,0 4.811,0.687 6.645,2.064c1.829,1.377 2.792,3.372 2.881,5.991l-4.946,0c-0.091,-1.483 -0.738,-2.533 -1.942,-3.158c-0.8,-0.413 -1.798,-0.62 -2.992,-0.62c-1.324,0 -2.384,0.269 -3.174,0.803c-0.791,0.533 -1.185,1.281 -1.185,2.24c0,0.88 0.387,1.538 1.17,1.973c0.5,0.288 1.569,0.63 3.206,1.019l4.246,1.019c1.86,0.447 3.266,1.043 4.213,1.79c1.468,1.158 2.204,2.836 2.204,5.03c0,2.249 -0.858,4.119 -2.581,5.609c-1.721,1.485 -4.153,2.23 -7.293,2.23c-3.211,0 -5.734,-0.733 -7.572,-2.199c-1.838,-1.466 -2.759,-3.477 -2.759,-6.041l4.914,0c0.156,1.125 0.461,1.966 0.918,2.523c0.836,1.014 2.269,1.521 4.297,1.521" style="fill:#3d3d3d;fill-rule:nonzero;"/><path d="M416.016,863.385l-11.967,0l0,6.335l13.64,0l0,4.426l-18.67,0l0,-24.634l18.069,0l0,4.364l-13.039,0l0,5.231l11.967,0l0,4.277Z" style="fill:#3d3d3d;fill-rule:nonzero;"/><path d="M441.113,847.023c-0.346,0 -0.836,-0.082 -1.471,-0.25c-0.368,-0.089 -0.719,-0.19 -1.053,-0.3l-1.355,-0.452c-0.19,-0.067 -0.372,-0.115 -0.55,-0.142c-0.178,-0.029 -0.358,-0.043 -0.533,-0.043c-0.425,0 -0.771,0.123 -1.038,0.368c-0.267,0.257 -0.457,0.608 -0.567,1.053l-2.175,0c0.245,-1.146 0.565,-2.016 0.954,-2.605c0.711,-1.06 1.771,-1.588 3.174,-1.588c0.3,0 0.598,0.034 0.887,0.099c0.288,0.07 0.536,0.139 0.735,0.219l1.572,0.584c0.469,0.156 0.774,0.257 0.918,0.3c0.144,0.046 0.308,0.067 0.485,0.067c0.533,0 0.911,-0.142 1.129,-0.425c0.216,-0.286 0.375,-0.62 0.476,-1.012l2.22,0c-0.197,1.17 -0.596,2.151 -1.194,2.941c-0.594,0.791 -1.466,1.187 -2.615,1.187m7.353,27.126l-5.145,0l-10.064,-17.499l0,17.499l-4.797,0l0,-24.634l5.4,0l9.809,17.196l0,-17.196l4.797,0l0,24.634Z" style="fill:#3d3d3d;fill-rule:nonzero;"/><path d="M475.869,868.215c1.192,-1.502 1.79,-3.643 1.79,-6.419c0,-2.764 -0.601,-4.9 -1.798,-6.407c-1.199,-1.512 -2.816,-2.266 -4.857,-2.266c-2.04,0 -3.665,0.752 -4.878,2.256c-1.216,1.504 -1.824,3.643 -1.824,6.416c0,2.776 0.608,4.917 1.824,6.419c1.214,1.502 2.838,2.256 4.878,2.256c2.04,0 3.662,-0.755 4.864,-2.256m-4.864,6.62c-3.521,0 -6.212,-0.961 -8.072,-2.876c-2.497,-2.35 -3.744,-5.739 -3.744,-10.163c0,-4.511 1.247,-7.899 3.744,-10.163c1.86,-1.915 4.551,-2.874 8.072,-2.874c3.521,0 6.212,0.959 8.074,2.874c2.485,2.264 3.727,5.652 3.727,10.163c0,4.424 -1.242,7.812 -3.727,10.163c-1.862,1.915 -4.554,2.876 -8.074,2.876" style="fill:#3d3d3d;fill-rule:nonzero;"/><path d="M529.221,849.513l-8.24,15.375l0,9.259l-5.147,0l0,-9.259l-8.524,-15.375l6.068,0l5.114,10.73l4.897,-10.73l5.832,0Z" style="fill:#3d3d3d;fill-rule:nonzero;"/><path d="M572.662,849.513l0,4.362l-7.37,0l0,20.272l-5.181,0l0,-20.272l-7.404,0l0,-4.362l19.955,0Z" style="fill:#3d3d3d;fill-rule:nonzero;"/><path d="M599.664,863.385l-11.967,0l0,6.335l13.637,0l0,4.426l-18.667,0l0,-24.634l18.069,0l0,4.364l-13.039,0l0,5.231l11.967,0l0,4.277Z" style="fill:#3d3d3d;fill-rule:nonzero;"/><path d="M629.574,872.309c-1.838,1.682 -4.189,2.523 -7.051,2.523c-3.545,0 -6.332,-1.137 -8.36,-3.41c-2.026,-2.283 -3.04,-5.414 -3.04,-9.391c0,-4.302 1.151,-7.615 3.458,-9.944c2.007,-2.028 4.559,-3.042 7.656,-3.042c4.145,0 7.176,1.358 9.093,4.078c1.057,1.526 1.627,3.057 1.704,4.595l-5.147,0c-0.336,-1.18 -0.764,-2.071 -1.288,-2.675c-0.935,-1.067 -2.324,-1.603 -4.162,-1.603c-1.872,0 -3.347,0.755 -4.429,2.264c-1.081,1.512 -1.62,3.648 -1.62,6.411c0,2.764 0.572,4.833 1.711,6.207c1.141,1.377 2.595,2.064 4.354,2.064c1.805,0 3.182,-0.591 4.128,-1.771c0.524,-0.637 0.959,-1.588 1.305,-2.857l5.097,0c-0.445,2.684 -1.581,4.869 -3.41,6.551" style="fill:#3d3d3d;fill-rule:nonzero;"/><path d="M663.679,874.148l-5.147,0l-10.062,-17.497l0,17.497l-4.797,0l0,-24.634l5.397,0l9.812,17.196l0,-17.196l4.797,0l0,24.634Z" style="fill:#3d3d3d;fill-rule:nonzero;"/><path d="M691.082,868.215c1.192,-1.502 1.788,-3.643 1.788,-6.419c0,-2.764 -0.598,-4.9 -1.798,-6.407c-1.197,-1.512 -2.814,-2.266 -4.854,-2.266c-2.04,0 -3.667,0.752 -4.881,2.256c-1.214,1.504 -1.822,3.643 -1.822,6.416c0,2.776 0.608,4.917 1.822,6.419c1.214,1.502 2.84,2.256 4.881,2.256c2.04,0 3.662,-0.755 4.864,-2.256m-4.864,6.62c-3.521,0 -6.212,-0.961 -8.072,-2.876c-2.497,-2.35 -3.744,-5.739 -3.744,-10.163c0,-4.511 1.247,-7.899 3.744,-10.163c1.86,-1.915 4.551,-2.874 8.072,-2.874c3.521,0 6.212,0.959 8.074,2.874c2.485,2.264 3.725,5.652 3.725,10.163c0,4.424 -1.24,7.812 -3.725,10.163c-1.862,1.915 -4.554,2.876 -8.074,2.876" style="fill:#3d3d3d;fill-rule:nonzero;"/><path d="M708.791,849.513l5.147,0l0,20.205l12.2,0l0,4.429l-17.348,0l0,-24.634Z" style="fill:#3d3d3d;fill-rule:nonzero;"/><path d="M752.305,868.215c1.192,-1.502 1.788,-3.643 1.788,-6.419c0,-2.764 -0.598,-4.9 -1.798,-6.407c-1.197,-1.512 -2.814,-2.266 -4.854,-2.266c-2.04,0 -3.667,0.752 -4.881,2.256c-1.214,1.504 -1.822,3.643 -1.822,6.416c0,2.776 0.608,4.917 1.822,6.419c1.214,1.502 2.84,2.256 4.881,2.256c2.04,0 3.662,-0.755 4.864,-2.256m-4.864,6.62c-3.521,0 -6.212,-0.961 -8.072,-2.876c-2.497,-2.35 -3.744,-5.739 -3.744,-10.163c0,-4.511 1.247,-7.899 3.744,-10.163c1.86,-1.915 4.551,-2.874 8.072,-2.874c3.521,0 6.212,0.959 8.074,2.874c2.485,2.264 3.725,5.652 3.725,10.163c0,4.424 -1.24,7.812 -3.725,10.163c-1.862,1.915 -4.554,2.876 -8.074,2.876" style="fill:#3d3d3d;fill-rule:nonzero;"/><path d="M785.123,873.547c-1.36,0.836 -3.03,1.252 -5.015,1.252c-3.263,0 -5.938,-1.127 -8.021,-3.391c-2.172,-2.273 -3.259,-5.38 -3.259,-9.326c0,-3.989 1.096,-7.185 3.292,-9.593c2.194,-2.405 5.097,-3.609 8.706,-3.609c3.131,0 5.647,0.793 7.548,2.381c1.898,1.588 2.989,3.566 3.266,5.94l-5.063,0c-0.389,-1.682 -1.343,-2.857 -2.857,-3.528c-0.848,-0.365 -1.79,-0.55 -2.826,-0.55c-1.983,0 -3.612,0.75 -4.888,2.249c-1.276,1.497 -1.915,3.751 -1.915,6.76c0,3.03 0.692,5.174 2.074,6.433c1.382,1.262 2.953,1.891 4.715,1.891c1.725,0 3.138,-0.502 4.244,-1.497c1.103,-0.997 1.783,-2.305 2.04,-3.919l-5.703,0l0,-4.109l10.264,0l0,13.219l-3.41,0l-0.519,-3.078c-0.99,1.17 -1.882,1.997 -2.672,2.475" style="fill:#3d3d3d;fill-rule:nonzero;"/><path d="M803.081,849.514l5.114,0l0,24.634l-5.114,0l0,-24.634Zm-0.233,-2.458l3.208,-4.998l5.316,0l-5.08,4.998l-3.444,0Z" style="fill:#3d3d3d;fill-rule:nonzero;"/><path d="M832.826,864.839l-3.074,-9.694l-3.177,9.694l6.25,0Zm1.437,4.244l-9.074,0l-1.704,5.066l-5.385,0l8.793,-24.634l5.815,0l8.726,24.634l-5.582,0l-1.588,-5.066Z" style="fill:#3d3d3d;fill-rule:nonzero;"/></g></svg>
